<svg id="Layer_1" data-name="Layer 1" xmlns="http://www.w3.org/2000/svg" viewBox="0 0 72 72"><defs><style>.cls-1{fill:#00b8de;}</style></defs><path class="cls-1" d="M62.21,19.43c.08-.37.14-.74.2-1.1s.09-.73.13-1.1.07-.72.08-1.08,0-.72,0-1.08A13.92,13.92,0,0,0,60.4,7.39a14.61,14.61,0,0,0-5.85-5,21.47,21.47,0,0,0-3.72-1.37,26.44,26.44,0,0,0-4-.78A38.07,38.07,0,0,0,42.67,0c-.7,0-1.41,0-2.11,0s-1.42.06-2.15.13a42,42,0,0,0-4.36.56A36.2,36.2,0,0,0,29.62,1.8,32,32,0,0,0,20.89,6a26.93,26.93,0,0,0-7.07,7.13,24.67,24.67,0,0,0-2.3,4.28,25.43,25.43,0,0,0-1.34,4.35l-.24,1.07-.18,1.07-.09.53L9.61,25,9.48,26c0,.7-.12,1.4-.12,2.09,0,.35,0,.7,0,1l0,1a27.36,27.36,0,0,0,.47,4c.11.6.26,1.18.41,1.76.08.34.18.67.29,1s.2.68.32,1l.34.9c.12.29.25.58.38.87l.19.44.21.42.43.84.47.82.24.4.26.39.52.78.52.73,5.05,6.91a12.33,12.33,0,0,1,2.25,9c-.46,3.17-1,7.34-1.55,11a.51.51,0,0,0,1,.2l3.09-11.51a12.3,12.3,0,0,0-1.86-10.32L17.16,42.4l-.52-.73L16.17,41l-.24-.36-.22-.37-.43-.74-.39-.77-.19-.38-.18-.4c-.11-.27-.23-.53-.34-.8l-.31-.82c-.11-.29-.2-.6-.3-.9s-.19-.61-.26-.91c-.13-.53-.28-1.06-.37-1.61a25.22,25.22,0,0,1-.43-3.62l0-.93c0-.31,0-.63,0-.94,0-.63.07-1.27.1-1.9l.12-1,0-.48.09-.48.16-1,.21-1a22.76,22.76,0,0,1,1.17-3.79,20.44,20.44,0,0,1,1.93-3.59,22.48,22.48,0,0,1,5.91-6,28,28,0,0,1,7.58-3.64,32.13,32.13,0,0,1,4-1,39.47,39.47,0,0,1,4-.52c.67-.06,1.33-.07,2-.11s1.33,0,2,0a32.17,32.17,0,0,1,3.84.25,23.31,23.31,0,0,1,3.63.7A19.43,19.43,0,0,1,52.6,5.21a12.56,12.56,0,0,1,5,4.25,11.64,11.64,0,0,1,1.87,6.42,16,16,0,0,1-.09,1.82c-.05.33-.1.66-.16,1l-.2.92c-.08.3-.14.6-.2.91s-.14.65-.21,1c-.16.65-.31,1.31-.51,2a40.87,40.87,0,0,1-1.36,3.94C56.23,28.7,55.63,30,55,31.3c-.17.32-.34.65-.52,1l-.55,1c-.39.64-.77,1.28-1.19,1.91l0,0a.32.32,0,0,0,.51.39,42,42,0,0,0,3-3.8,44.13,44.13,0,0,0,2.49-3.94,45.18,45.18,0,0,0,2-4.13c.3-.7.57-1.4.84-2.11.13-.36.26-.71.38-1.07S62.12,19.79,62.21,19.43Z"/><ellipse class="cls-1" cx="29.01" cy="17.49" rx="2" ry="1.53" transform="translate(-4.34 23.43) rotate(-41.18)"/><ellipse class="cls-1" cx="34.48" cy="17.49" rx="2" ry="1.53" transform="translate(-2.99 27.03) rotate(-41.18)"/><ellipse class="cls-1" cx="27.69" cy="22.42" rx="2" ry="1.53" transform="translate(-7.91 23.78) rotate(-41.18)"/><ellipse class="cls-1" cx="33.16" cy="22.42" rx="2" ry="1.53" transform="translate(-6.56 27.38) rotate(-41.18)"/><ellipse class="cls-1" cx="26.37" cy="27.34" rx="2" ry="1.53" transform="translate(-11.48 24.13) rotate(-41.19)"/><ellipse class="cls-1" cx="22.23" cy="22.42" rx="2" ry="1.53" transform="translate(-9.26 20.18) rotate(-41.18)"/><ellipse class="cls-1" cx="20.91" cy="27.34" rx="2" ry="1.53" transform="translate(-12.83 20.53) rotate(-41.19)"/><ellipse class="cls-1" cx="31.84" cy="27.34" rx="2" ry="1.53" transform="translate(-10.12 27.73) rotate(-41.18)"/><ellipse class="cls-1" cx="38.62" cy="22.42" rx="2" ry="1.53" transform="translate(-5.2 30.98) rotate(-41.18)"/><ellipse class="cls-1" cx="37.3" cy="27.34" rx="2" ry="1.53" transform="translate(-8.77 31.33) rotate(-41.19)"/><ellipse class="cls-1" cx="43.84" cy="22.42" rx="2" ry="1.53" transform="translate(-3.91 34.41) rotate(-41.18)"/><ellipse class="cls-1" cx="42.52" cy="27.34" rx="2" ry="1.53" transform="translate(-7.48 34.76) rotate(-41.19)"/><ellipse class="cls-1" cx="48.75" cy="22.42" rx="2" ry="1.53" transform="matrix(0.75, -0.66, 0.66, 0.75, -2.7, 37.65)"/><ellipse class="cls-1" cx="47.43" cy="27.34" rx="2" ry="1.53" transform="translate(-6.27 38) rotate(-41.19)"/><ellipse class="cls-1" cx="25.05" cy="32.26" rx="2" ry="1.53" transform="translate(-15.04 24.48) rotate(-41.18)"/><ellipse class="cls-1" cx="30.52" cy="32.26" rx="2" ry="1.53" transform="translate(-13.69 28.08) rotate(-41.18)"/><ellipse class="cls-1" cx="39.94" cy="17.49" rx="2" ry="1.53" transform="translate(-1.64 30.63) rotate(-41.18)"/><ellipse class="cls-1" cx="35.87" cy="12.28" rx="2" ry="1.53" transform="translate(0.79 26.66) rotate(-41.18)"/><ellipse class="cls-1" cx="41.34" cy="12.28" rx="2" ry="1.53" transform="translate(2.14 30.26) rotate(-41.18)"/><ellipse class="cls-1" cx="35.99" cy="32.26" rx="2" ry="1.53" transform="translate(-12.34 31.68) rotate(-41.18)"/><ellipse class="cls-1" cx="29.21" cy="37.15" rx="2" ry="1.53" transform="translate(-17.24 28.42) rotate(-41.18)"/><ellipse class="cls-1" cx="34.67" cy="37.15" rx="2" ry="1.53" transform="translate(-15.88 32.02) rotate(-41.18)"/><ellipse class="cls-1" cx="45.41" cy="17.49" rx="2" ry="1.53" transform="translate(-0.28 34.23) rotate(-41.18)"/><ellipse class="cls-1" cx="41.45" cy="32.26" rx="2" ry="1.53" transform="translate(-10.99 35.28) rotate(-41.18)"/></svg>